<?xml version="1.0" encoding="utf-8"?>
<!-- Svg Vector Icons : http://www.onlinewebfonts.com/icon -->
<!DOCTYPE svg PUBLIC "-//W3C//DTD SVG 1.1//EN" "http://www.w3.org/Graphics/SVG/1.1/DTD/svg11.dtd">
<svg version="1.1" xmlns="http://www.w3.org/2000/svg" xmlns:xlink="http://www.w3.org/1999/xlink" x="0px" y="0px" viewBox="0 0 1000 1000" enable-background="new 0 0 1000 1000" xml:space="preserve">
<metadata> Svg Vector Icons : http://www.onlinewebfonts.com/icon </metadata>
<g><path d="M730.5,990c-63.2,0-144.9-42.1-202.2-77.5c-76.8-47.3-159.5-112.8-233-184.3l-0.3-0.3l-23.3-23.3c-71.5-73.4-137-156.2-184.3-233C52.1,414.3,10,332.7,10,269.5c0-67.7,48.4-139.5,69.2-167.2C95.4,80.6,152.1,10,200.3,10c19.8,0,41.1,12.9,69.1,42c24.8,25.7,48.5,57.6,64.1,79.9c20.9,29.9,40.3,61.2,54.5,88.1c23,43.6,25.7,62.3,25.7,72.6c0,20.7-10.8,38.7-32.2,53.4c-14.1,9.7-30.9,17-47.3,24.1c-11,4.8-28.6,12.4-35.3,17.7c2.3,9.9,12.6,33.8,40.2,74.4c25.7,37.8,59,78.8,89.1,109.6c30.9,30.1,71.8,63.4,109.6,89.1c40.6,27.6,64.5,37.8,74.4,40.2c5.3-6.7,12.9-24.3,17.7-35.3c7.1-16.3,14.4-33.2,24.1-47.3c14.7-21.4,32.7-32.2,53.4-32.2c10.3,0,29,2.7,72.6,25.7c26.9,14.2,58.2,33.6,88.1,54.5c22.3,15.6,54.2,39.3,79.9,64.1c29,28,42,49.3,42,69.1c0,48.2-70.6,104.9-92.3,121.1C870,941.6,798.2,990,730.5,990L730.5,990z M333.6,688.2c71.4,69.6,151.7,133.1,225.9,178.9c72,44.4,135.5,69.8,174.3,69.8c34.5,0,83.7-21.1,131.6-56.4c21-15.5,40.1-32.7,53.8-48.5c12.9-14.8,17.6-24.5,18.8-28.4c-5-10.7-34.5-44-103.4-91.6c-27-18.6-55-35.8-78.7-48.2c-29.8-15.6-42.2-18.4-45-18.8c-1.1,0.8-4.3,3.5-9.3,11.7c-5.5,9.3-10.8,21.5-15.9,33.4c-6.3,14.6-12.8,29.7-20.8,41.9c-13,19.8-29,29.9-47.5,29.9c-0.3,0-0.7,0-1,0c-9-0.2-36.4-0.8-110.9-51.5c-41.1-28-85.7-64.3-119.4-97.1l-0.5-0.5c-32.8-33.7-69.1-78.3-97.1-119.4c-50.7-74.4-51.3-101.9-51.5-110.9c-0.4-18.8,9.5-35.1,29.6-48.4c12.2-8.1,27.5-14.7,42.2-21c11.9-5.1,24.1-10.4,33.4-15.9c8.3-4.9,11-8.2,11.7-9.3c-0.4-2.8-3.1-15.2-18.8-45c-12.5-23.7-29.6-51.6-48.2-78.7c-47.5-68.9-80.9-98.4-91.6-103.4c-3.9,1.2-13.6,5.9-28.4,18.8c-15.8,13.7-33,32.8-48.5,53.8c-35.3,47.9-56.4,97.1-56.4,131.6c0,38.7,25.4,102.2,69.8,174.3c45.8,74.3,109.3,154.5,178.9,225.9L333.6,688.2L333.6,688.2z"/></g>
</svg>