<?xml version="1.0" encoding="utf-8"?>
<!-- Svg Vector Icons : http://www.onlinewebfonts.com/icon -->
<!DOCTYPE svg PUBLIC "-//W3C//DTD SVG 1.1//EN" "http://www.w3.org/Graphics/SVG/1.1/DTD/svg11.dtd">
<svg version="1.1" xmlns="http://www.w3.org/2000/svg" xmlns:xlink="http://www.w3.org/1999/xlink" x="0px" y="0px" viewBox="0 0 1000 1000" enable-background="new 0 0 1000 1000" xml:space="preserve">
<metadata> Svg Vector Icons : http://www.onlinewebfonts.com/icon </metadata>
<g><path d="M326.3,902.3c-108.9,0-214.8-31-306.3-89.7c-8.6-5.5-12.2-16.1-8.8-25.7c3.4-9.6,13.1-15.7,23.1-14.3c76.7,8.9,156.8-6.7,224-45.1c-66.5-19.9-120.5-71.4-142.3-139.6c-2.4-7.4-0.7-15.4,4.5-21.1c3.1-3.5,7.3-5.8,11.8-6.8C80.4,520.4,47.6,458,47.6,389.5c0-7.7,4.1-16,10.7-19.9c6.7-3.9,14.9-5.2,21.6-1.5c1.9,1.1,3.9,2.1,5.8,3.1c-23.6-34.8-36.6-76.4-36.6-119.9c0-37.7,10-74.9,29-107.5c3.6-6.2,10-10.2,17.1-10.8c7.2-0.6,14.1,2.4,18.6,7.9C202,249,329.5,317.5,467.1,331.6c-0.6-6.6-0.9-13.3-0.9-19.9c0-117.9,96-213.9,213.9-213.9c54.8,0,107.8,21.2,147.3,58.7c36.4-8.3,71.2-22.3,103.8-41.6c7.8-4.5,17.6-3.9,24.7,1.7c7.1,5.7,9.9,15.1,7.2,23.7c-6.9,21.7-17.2,41.9-30.4,60.1c9-3.1,17.9-6.7,26.7-10.5c8.8-4,19.3-1.6,25.5,5.9c6.2,7.4,6.8,18.1,1.4,26.1c-25.3,37.7-56.1,70.6-91.8,97.9c0.1,4.7,0.2,9.5,0.2,14.2C894.7,613.3,682.1,902.3,326.3,902.3z M120.3,816.5c64.8,27.7,134.7,42.2,206.1,42.2c328.5,0,524.8-266.9,524.8-524.8c0-8-0.2-16-0.5-24c-0.3-7.3,3.1-14.3,9-18.5c15.7-11.3,30.4-23.8,44.1-37.4c-14.2,3.3-28.6,5.8-43.2,7.5c-10.1,1.5-19.9-4.8-23.2-14.5c-3.3-9.7,0.6-20.4,9.4-25.7c17.3-10.4,32.5-23.6,44.9-38.9c-21.7,8.3-44.1,14.8-67,19.3c-7.3,1.5-15-0.9-20.1-6.5c-32.1-34.2-77.4-53.8-124.4-53.8c-93.9,0-170.3,76.4-170.3,170.3c0,13,1.5,26.1,4.4,38.9c1.5,6.6-0.1,13.7-4.5,18.9c-4.4,5.2-11,8.9-17.8,7.7c-148.7-7.4-288.7-73.6-389.4-182.8c-6.5,18.2-9.8,37.5-9.8,56.9c0,57.1,28.3,110.1,75.7,141.8c8.1,5.4,11.6,15.5,8.7,24.8c-2.9,9.2-12.2,14.8-21.4,15.2c-20.8-0.6-41.4-4.3-61.1-11c13.4,67.5,65.3,121,133.1,134.6c9.9,2,17.1,10.5,17.5,20.6c0.4,10.1-6.3,19.1-16,21.8c-18.8,5.1-38.5,7.9-57.8,7.6c29.2,51.6,84,85.2,145.2,86.5c9.2,0.2,17.3,6.2,20.2,14.9c2.9,8.7,0,18.4-7.2,24C268.4,779.9,196.7,808.7,120.3,816.5z"/></g>
</svg>